# xmcd CD database file
#
# Track frame offsets:
#	150
#	11097
#	29532
#	46414
#	61819
#	80867
#	86896
#	97383
#	113763
#	131174
#	145074
#	158285
#
# Disc length: 2311 seconds
#
# Revision: 1
# Processed by: cddbd v1.5.1PL2 Copyright (c) Steve Scherf et al.
# Submitted via: CDex 1.50Beta7
#
DISCID=a309050c
DTITLE=Simone - Quatro Paredes
DYEAR=1974
DGENRE=Jazz
TTITLE0=De frente pro crime
TTITLE1=Nosso amor não deu em nada
TTITLE2=Fantasia
TTITLE3=Salamargo
TTITLE4=Baião do coração
TTITLE5=Chuva suor e cerveja
TTITLE6=Quatro paredes
TTITLE7=Desgosto
TTITLE8=A saudade mata a gente
TTITLE9=Bodas de prata
TTITLE10=Proposta
TTITLE11=Qui nem jiló
EXTD=YEAR: 1974
EXTT0=
EXTT1=
EXTT2=
EXTT3=
EXTT4=
EXTT5=
EXTT6=
EXTT7=
EXTT8=
EXTT9=
EXTT10=
EXTT11=
PLAYORDER=
